<mxfile host="app.diagrams.net" modified="2024-03-29T06:03:47.476Z" agent="Mozilla/5.0 (Windows NT 10.0; Win64; x64) AppleWebKit/537.36 (KHTML, like Gecko) Chrome/123.0.0.0 Safari/537.36" etag="P65a8JCswV5hqTM3bETw" version="24.2.0" type="device">
  <diagram name="Страница — 1" id="fsm5WZ1MSx0vYcQyWfyi">
    <mxGraphModel dx="2171" dy="1124" grid="1" gridSize="10" guides="1" tooltips="1" connect="1" arrows="1" fold="1" page="1" pageScale="1" pageWidth="827" pageHeight="1169" math="0" shadow="0">
      <root>
        <mxCell id="0" />
        <mxCell id="1" parent="0" />
        <mxCell id="q9NNP2_hGoCEOtxlnX3v-12" style="edgeStyle=orthogonalEdgeStyle;rounded=0;orthogonalLoop=1;jettySize=auto;html=1;entryX=0.5;entryY=0;entryDx=0;entryDy=0;" edge="1" parent="1" source="q9NNP2_hGoCEOtxlnX3v-1" target="q9NNP2_hGoCEOtxlnX3v-11">
          <mxGeometry relative="1" as="geometry" />
        </mxCell>
        <mxCell id="q9NNP2_hGoCEOtxlnX3v-1" value="&lt;div&gt;&lt;span style=&quot;font-size: 12pt; background-color: initial;&quot;&gt;входит в систему.&amp;nbsp;&lt;/span&gt;&lt;br&gt;&lt;/div&gt;" style="rounded=0;whiteSpace=wrap;html=1;" vertex="1" parent="1">
          <mxGeometry x="565" y="210" width="120" height="60" as="geometry" />
        </mxCell>
        <mxCell id="q9NNP2_hGoCEOtxlnX3v-3" style="edgeStyle=orthogonalEdgeStyle;rounded=0;orthogonalLoop=1;jettySize=auto;html=1;" edge="1" parent="1" source="q9NNP2_hGoCEOtxlnX3v-2" target="q9NNP2_hGoCEOtxlnX3v-1">
          <mxGeometry relative="1" as="geometry" />
        </mxCell>
        <mxCell id="q9NNP2_hGoCEOtxlnX3v-2" value="" style="ellipse;whiteSpace=wrap;html=1;aspect=fixed;" vertex="1" parent="1">
          <mxGeometry x="585" y="90" width="80" height="80" as="geometry" />
        </mxCell>
        <mxCell id="q9NNP2_hGoCEOtxlnX3v-4" value="&lt;h1 style=&quot;box-sizing: border-box; margin-top: 0px; margin-bottom: 0.5rem; line-height: 1.2; font-size: 2rem; color: rgb(33, 37, 41); font-family: -apple-system, BlinkMacSystemFont, &amp;quot;Segoe UI&amp;quot;, Roboto, &amp;quot;Helvetica Neue&amp;quot;, Arial, &amp;quot;Noto Sans&amp;quot;, &amp;quot;Liberation Sans&amp;quot;, sans-serif, &amp;quot;Apple Color Emoji&amp;quot;, &amp;quot;Segoe UI Emoji&amp;quot;, &amp;quot;Segoe UI Symbol&amp;quot;, &amp;quot;Noto Color Emoji&amp;quot;; text-align: left; background-color: rgb(255, 255, 255);&quot; id=&quot;yui_3_17_2_1_1711688063098_381&quot; class=&quot;h2&quot;&gt;Разработка диаграмм деятельности&lt;/h1&gt;" style="text;html=1;align=center;verticalAlign=middle;whiteSpace=wrap;rounded=0;" vertex="1" parent="1">
          <mxGeometry x="10" y="10" width="570" height="30" as="geometry" />
        </mxCell>
        <mxCell id="q9NNP2_hGoCEOtxlnX3v-5" value="" style="endArrow=none;html=1;rounded=0;" edge="1" parent="1">
          <mxGeometry width="50" height="50" relative="1" as="geometry">
            <mxPoint x="440" y="830" as="sourcePoint" />
            <mxPoint x="440" y="50" as="targetPoint" />
          </mxGeometry>
        </mxCell>
        <mxCell id="q9NNP2_hGoCEOtxlnX3v-6" value="клиент" style="text;html=1;align=center;verticalAlign=middle;whiteSpace=wrap;rounded=0;" vertex="1" parent="1">
          <mxGeometry x="500" y="60" width="60" height="30" as="geometry" />
        </mxCell>
        <mxCell id="q9NNP2_hGoCEOtxlnX3v-8" value="система" style="text;html=1;align=center;verticalAlign=middle;whiteSpace=wrap;rounded=0;" vertex="1" parent="1">
          <mxGeometry x="40" y="50" width="60" height="30" as="geometry" />
        </mxCell>
        <mxCell id="q9NNP2_hGoCEOtxlnX3v-14" style="edgeStyle=orthogonalEdgeStyle;rounded=0;orthogonalLoop=1;jettySize=auto;html=1;" edge="1" parent="1" source="q9NNP2_hGoCEOtxlnX3v-11" target="q9NNP2_hGoCEOtxlnX3v-13">
          <mxGeometry relative="1" as="geometry" />
        </mxCell>
        <mxCell id="q9NNP2_hGoCEOtxlnX3v-11" value="&lt;br&gt;&lt;span style=&quot;font-size:12.0pt;line-height:107%;&lt;br/&gt;font-family:&amp;quot;Times New Roman&amp;quot;,serif;mso-fareast-font-family:Calibri;mso-fareast-theme-font:&lt;br/&gt;minor-latin;mso-ansi-language:RU;mso-fareast-language:EN-US;mso-bidi-language:&lt;br/&gt;AR-SA&quot;&gt;выбирает опцию для подачи новой заявки.&lt;/span&gt;&lt;div&gt;&lt;br&gt;&lt;/div&gt;" style="rounded=0;whiteSpace=wrap;html=1;" vertex="1" parent="1">
          <mxGeometry x="515" y="310" width="220" height="60" as="geometry" />
        </mxCell>
        <mxCell id="q9NNP2_hGoCEOtxlnX3v-32" style="edgeStyle=orthogonalEdgeStyle;rounded=0;orthogonalLoop=1;jettySize=auto;html=1;" edge="1" parent="1" source="q9NNP2_hGoCEOtxlnX3v-13" target="q9NNP2_hGoCEOtxlnX3v-16">
          <mxGeometry relative="1" as="geometry" />
        </mxCell>
        <mxCell id="q9NNP2_hGoCEOtxlnX3v-13" value="&lt;div&gt;&lt;span style=&quot;font-size: 12pt; background-color: initial;&quot;&gt;заполняет форму заявки, указывая требования и предпочтения.&lt;/span&gt;&lt;br&gt;&lt;/div&gt;" style="rounded=0;whiteSpace=wrap;html=1;" vertex="1" parent="1">
          <mxGeometry x="490" y="410" width="270" height="60" as="geometry" />
        </mxCell>
        <mxCell id="q9NNP2_hGoCEOtxlnX3v-30" style="edgeStyle=orthogonalEdgeStyle;rounded=0;orthogonalLoop=1;jettySize=auto;html=1;exitX=0;exitY=0.5;exitDx=0;exitDy=0;entryX=0.25;entryY=0;entryDx=0;entryDy=0;" edge="1" parent="1" source="q9NNP2_hGoCEOtxlnX3v-16" target="q9NNP2_hGoCEOtxlnX3v-18">
          <mxGeometry relative="1" as="geometry" />
        </mxCell>
        <mxCell id="q9NNP2_hGoCEOtxlnX3v-31" style="edgeStyle=orthogonalEdgeStyle;rounded=0;orthogonalLoop=1;jettySize=auto;html=1;entryX=0.75;entryY=0;entryDx=0;entryDy=0;exitX=1;exitY=0.5;exitDx=0;exitDy=0;" edge="1" parent="1" source="q9NNP2_hGoCEOtxlnX3v-16" target="q9NNP2_hGoCEOtxlnX3v-17">
          <mxGeometry relative="1" as="geometry" />
        </mxCell>
        <mxCell id="q9NNP2_hGoCEOtxlnX3v-16" value="" style="rhombus;whiteSpace=wrap;html=1;" vertex="1" parent="1">
          <mxGeometry x="190" y="510" width="80" height="80" as="geometry" />
        </mxCell>
        <mxCell id="q9NNP2_hGoCEOtxlnX3v-34" style="edgeStyle=orthogonalEdgeStyle;rounded=0;orthogonalLoop=1;jettySize=auto;html=1;" edge="1" parent="1" source="q9NNP2_hGoCEOtxlnX3v-17" target="q9NNP2_hGoCEOtxlnX3v-33">
          <mxGeometry relative="1" as="geometry" />
        </mxCell>
        <mxCell id="q9NNP2_hGoCEOtxlnX3v-17" value="&lt;span style=&quot;font-size:12.0pt;line-height:107%;&lt;br/&gt;font-family:&amp;quot;Times New Roman&amp;quot;,serif;mso-fareast-font-family:Calibri;mso-fareast-theme-font:&lt;br/&gt;minor-latin;mso-ansi-language:RU;mso-fareast-language:EN-US;mso-bidi-language:&lt;br/&gt;AR-SA&quot;&gt;выводит сообщение «Неправильно заполненная форма»&lt;/span&gt;" style="rounded=0;whiteSpace=wrap;html=1;" vertex="1" parent="1">
          <mxGeometry x="240" y="620" width="190" height="60" as="geometry" />
        </mxCell>
        <mxCell id="q9NNP2_hGoCEOtxlnX3v-29" style="edgeStyle=orthogonalEdgeStyle;rounded=0;orthogonalLoop=1;jettySize=auto;html=1;" edge="1" parent="1" source="q9NNP2_hGoCEOtxlnX3v-18" target="q9NNP2_hGoCEOtxlnX3v-28">
          <mxGeometry relative="1" as="geometry" />
        </mxCell>
        <mxCell id="q9NNP2_hGoCEOtxlnX3v-18" value="&lt;span style=&quot;font-size:12.0pt;line-height:107%;&lt;br/&gt;font-family:&amp;quot;Times New Roman&amp;quot;,serif;mso-fareast-font-family:Calibri;mso-fareast-theme-font:&lt;br/&gt;minor-latin;mso-ansi-language:RU;mso-fareast-language:EN-US;mso-bidi-language:&lt;br/&gt;AR-SA&quot;&gt;регистрирует заявку и назначает менеджера проектов.&amp;nbsp;&lt;/span&gt;" style="rounded=0;whiteSpace=wrap;html=1;" vertex="1" parent="1">
          <mxGeometry x="10" y="620" width="200" height="60" as="geometry" />
        </mxCell>
        <mxCell id="q9NNP2_hGoCEOtxlnX3v-25" value="правильное&lt;span style=&quot;background-color: initial;&quot;&gt;&amp;nbsp;заполнение формы&lt;/span&gt;" style="text;html=1;align=center;verticalAlign=middle;resizable=0;points=[];autosize=1;strokeColor=none;fillColor=none;" vertex="1" parent="1">
          <mxGeometry x="140" y="585" width="200" height="30" as="geometry" />
        </mxCell>
        <mxCell id="q9NNP2_hGoCEOtxlnX3v-26" value="да" style="text;html=1;align=center;verticalAlign=middle;whiteSpace=wrap;rounded=0;" vertex="1" parent="1">
          <mxGeometry x="70" y="520" width="60" height="30" as="geometry" />
        </mxCell>
        <mxCell id="q9NNP2_hGoCEOtxlnX3v-27" value="нет" style="text;html=1;align=center;verticalAlign=middle;whiteSpace=wrap;rounded=0;" vertex="1" parent="1">
          <mxGeometry x="320" y="520" width="60" height="30" as="geometry" />
        </mxCell>
        <mxCell id="q9NNP2_hGoCEOtxlnX3v-28" value="" style="ellipse;whiteSpace=wrap;html=1;aspect=fixed;" vertex="1" parent="1">
          <mxGeometry x="70" y="730" width="80" height="80" as="geometry" />
        </mxCell>
        <mxCell id="q9NNP2_hGoCEOtxlnX3v-35" style="edgeStyle=orthogonalEdgeStyle;rounded=0;orthogonalLoop=1;jettySize=auto;html=1;entryX=1;entryY=0.5;entryDx=0;entryDy=0;" edge="1" parent="1" source="q9NNP2_hGoCEOtxlnX3v-33" target="q9NNP2_hGoCEOtxlnX3v-11">
          <mxGeometry relative="1" as="geometry">
            <Array as="points">
              <mxPoint x="790" y="650" />
              <mxPoint x="790" y="340" />
            </Array>
          </mxGeometry>
        </mxCell>
        <mxCell id="q9NNP2_hGoCEOtxlnX3v-33" value="&lt;p class=&quot;MsoNormal&quot;&gt;&lt;span style=&quot;font-size: 16px;&quot;&gt;подтверждает просмотр&amp;nbsp;&lt;/span&gt;&lt;span style=&quot;font-size: 16px; background-color: initial;&quot;&gt;сообщения.&lt;/span&gt;&lt;/p&gt;" style="rounded=0;whiteSpace=wrap;html=1;" vertex="1" parent="1">
          <mxGeometry x="515" y="620" width="210" height="60" as="geometry" />
        </mxCell>
      </root>
    </mxGraphModel>
  </diagram>
</mxfile>
